<?xml version="1.0" encoding="UTF-8" standalone="no"?>
<!-- Generator: Adobe Illustrator 15.1.0, SVG Export Plug-In . SVG Version: 6.00 Build 0)  -->

<svg
   width="10mm"
   x="0px"
   version="1.1"
   y="0px"
   gorn="0"
   height="15mm"
   viewBox="0 0 28.346456 42.519713"
   id="Layer_2"
   enable-background="new 0 0 28.35 35.43"
   xml:space="preserve"
   sodipodi:docname="Untitled Sketch 2_ii.svg"
   inkscape:version="1.2 (dc2aedaf03, 2022-05-15)"
   xmlns:inkscape="http://www.inkscape.org/namespaces/inkscape"
   xmlns:sodipodi="http://sodipodi.sourceforge.net/DTD/sodipodi-0.dtd"
   xmlns="http://www.w3.org/2000/svg"
   xmlns:svg="http://www.w3.org/2000/svg"><defs
   id="defs96" /><sodipodi:namedview
   id="namedview94"
   pagecolor="#ffffff"
   bordercolor="#000000"
   borderopacity="0.25"
   inkscape:showpageshadow="2"
   inkscape:pageopacity="0.0"
   inkscape:pagecheckerboard="0"
   inkscape:deskcolor="#d1d1d1"
   inkscape:document-units="in"
   showgrid="false"
   inkscape:zoom="17.358182"
   inkscape:cx="18.838378"
   inkscape:cy="4.1190949"
   inkscape:window-width="1920"
   inkscape:window-height="1009"
   inkscape:window-x="-8"
   inkscape:window-y="-8"
   inkscape:window-maximized="1"
   inkscape:current-layer="Layer_2" />
    <desc
   id="desc2">
        <referenceFile>BMP180_BREADBOARD_v3.svg</referenceFile>
    </desc>
    <path
   style="fill:#172952;fill-opacity:1;stroke-width:0.0514043"
   d="m 20.255304,38.764501 c -1.941952,-0.458377 -3.453513,-2.199285 -3.912073,-4.505646 -0.122935,-0.618311 -0.120828,-1.753733 0.0045,-2.39153 0.39923,-2.032719 1.662306,-3.652502 3.353273,-4.300276 0.985182,-0.377403 2.112618,-0.377511 3.141624,-2.99e-4 0.674464,0.247243 1.515597,0.864141 2.042771,1.498196 l 0.202599,0.243673 v 3.574901 c 0,3.532557 0.0013,3.575211 0.104966,3.601232 0.05773,0.01448 0.104967,0.03866 0.104967,0.05374 0,0.0698 -0.5963,0.774137 -0.897501,1.060112 -0.612581,0.581611 -1.46727,1.036523 -2.244254,1.194511 -0.494629,0.100572 -1.411996,0.08676 -1.900807,-0.02861 z"
   id="path1039" /><path
   fill="#172952"
   d="M 28.35,42.64562 H 0 V 0 H 28.35 Z M 2.178,5.8040411 c 0,0.7944146 0.536,1.4395755 1.197,1.4395755 0.661,0 1.197,-0.6451609 1.197,-1.4395755 0,-0.7968218 -0.536,-1.4407791 -1.197,-1.4407791 -0.661,0 -1.197,0.6439573 -1.197,1.4407791 z m 7.199,0 c 0,0.7944146 0.536,1.4395755 1.197,1.4395755 0.661,0 1.196,-0.6451609 1.196,-1.4395755 0,-0.7968218 -0.535,-1.4407791 -1.196,-1.4407791 -0.661,0 -1.197,0.6439573 -1.197,1.4407791 z m 7.201,0 c 0,0.7944146 0.536,1.4395755 1.197,1.4395755 0.661,0 1.196,-0.6451609 1.196,-1.4395755 0,-0.7968218 -0.535,-1.4407791 -1.196,-1.4407791 -0.661,0 -1.197,0.6439573 -1.197,1.4407791 z m 7.2,0 c 0,0.7944146 0.535,1.4395755 1.196,1.4395755 0.661,0 1.197,-0.6451609 1.197,-1.4395755 0,-0.7968218 -0.536,-1.4407791 -1.197,-1.4407791 -0.661,0 -1.196,0.6439573 -1.196,1.4407791 z M 21.026,28.242642 c -2.298,0 -4.161,2.242416 -4.161,5.008423 0,2.766007 1.863,5.008423 4.161,5.008423 2.298,0 4.161,-2.242416 4.161,-5.008423 0,-2.766007 -1.863,-5.008423 -4.161,-5.008423 z"
   id="path4"
   style="stroke-width:1.09711" />
    <g
   id="g12"
   transform="translate(17.498957,5.1416689)">
        <rect
   width="3.813"
   x="5.3699999"
   y="17.710144"
   fill="#95825d"
   height="2.125"
   id="rect6" />
        <rect
   width="0.85900003"
   x="8.3240004"
   y="17.714001"
   fill="#999999"
   height="2.125"
   id="rect8" />
        <rect
   width="0.85900003"
   x="5.3699999"
   y="17.714001"
   fill="#999999"
   height="2.1259999"
   id="rect10" />
    </g>
    <g
   id="g20"
   transform="rotate(-90,19.815795,14.474017)">
        <rect
   width="2.125"
   x="9.3129997"
   y="10.688"
   fill="#95825d"
   height="3.813"
   id="rect14" />
        <rect
   width="2.1259999"
   x="9.3120003"
   y="10.688"
   fill="#999999"
   height="0.85799998"
   id="rect16" />
        <rect
   width="2.1259999"
   x="9.3120003"
   y="13.642"
   fill="#999999"
   height="0.85799998"
   id="rect18" />
    </g>
    <g
   id="g28"
   transform="rotate(-90,15.975125,22.39118)">
        <rect
   width="2.125"
   x="23.641001"
   y="10.547"
   fill="#95825d"
   height="3.813"
   id="rect22" />
        <rect
   width="2.125"
   x="23.641001"
   y="10.547"
   fill="#999999"
   height="0.85799998"
   id="rect24" />
        <rect
   width="2.1259999"
   x="23.639999"
   y="13.501"
   fill="#999999"
   height="0.85799998"
   id="rect26" />
    </g>
    <g
   id="g312"
   transform="rotate(-90,21.10448,11.234629)">
        <rect
   width="3.5999999"
   x="15.713"
   y="9"
   fill="#303030"
   height="6.5009999"
   id="rect296" />
        <polyline
   fill="#1f1f1f"
   points="15.713,9 15.563,8.625 19.584,8.625 19.313,9 "
   id="polyline298" />
        <polygon
   fill="#1f1f1f"
   points="19.313,15.5 15.713,15.5 15.563,15.875 19.584,15.875 "
   id="polygon300" />
        <polygon
   fill="#3d3d3d"
   points="19.584,15.781 19.584,15.875 19.313,15.5 19.313,9 19.584,8.625 "
   id="polygon302" />
        <polygon
   points="15.563,15.781 15.563,15.875 15.713,15.5 15.713,8.984 15.563,8.625 "
   id="polygon304" />
        <rect
   width="1.442"
   x="19.584"
   y="11.688"
   fill="#999999"
   height="1.25"
   id="rect306" />
        <rect
   width="1.25"
   x="14.313"
   y="9.2969999"
   fill="#999999"
   height="1.125"
   id="rect308" />
        <rect
   width="1.25"
   x="14.313"
   y="14.248"
   fill="#999999"
   height="1.0880001"
   id="rect310" />
    </g><g
   id="g46"
   transform="rotate(-90,16.78375,22.468527)">
        <rect
   width="3.5999999"
   x="15.713"
   y="9"
   fill="#303030"
   height="6.5009999"
   id="rect30" />
        <polyline
   fill="#1f1f1f"
   points="15.713,9 15.563,8.625 19.584,8.625 19.313,9 "
   id="polyline32" />
        <polygon
   fill="#1f1f1f"
   points="19.313,15.5 15.713,15.5 15.563,15.875 19.584,15.875 "
   id="polygon34" />
        <polygon
   fill="#3d3d3d"
   points="19.584,15.781 19.584,15.875 19.313,15.5 19.313,9 19.584,8.625 "
   id="polygon36" />
        <polygon
   points="15.563,15.781 15.563,15.875 15.713,15.5 15.713,8.984 15.563,8.625 "
   id="polygon38" />
        <rect
   width="1.442"
   x="19.584"
   y="11.688"
   fill="#999999"
   height="1.25"
   id="rect40" />
        <rect
   width="1.25"
   x="14.313"
   y="9.2969999"
   fill="#999999"
   height="1.125"
   id="rect42" />
        <rect
   width="1.25"
   x="14.313"
   y="14.248"
   fill="#999999"
   height="1.0880001"
   id="rect44" />
    </g>
    <g
   id="g54"
   transform="rotate(-90,28.788949,17.827308)">
        <rect
   width="2.266"
   x="5.4689999"
   y="10.492"
   fill="#020202"
   height="3.9119999"
   id="rect48" />
        <rect
   width="2.266"
   x="5.4689999"
   y="13.391"
   fill="#999999"
   height="1.013"
   id="rect50" />
        <rect
   width="2.266"
   x="5.4689999"
   y="10.492"
   fill="#999999"
   height="0.625"
   id="rect52" />
    </g>
    <g
   id="g278"
   transform="rotate(-90,8.8192358,7.212715)">
        <rect
   width="2.266"
   x="1.558"
   y="10.492"
   fill="#020202"
   height="3.9119999"
   id="rect272" />
        <rect
   width="2.266"
   x="1.558"
   y="13.391"
   fill="#999999"
   height="1.013"
   id="rect274" />
        <rect
   width="2.266"
   x="1.558"
   y="10.492"
   fill="#999999"
   height="0.625"
   id="rect276" />
    </g><g
   id="g286"
   transform="rotate(-90,10.108254,8.5017329)">
        <rect
   width="2.266"
   x="1.558"
   y="10.492"
   fill="#020202"
   height="3.9119999"
   id="rect280" />
        <rect
   width="2.266"
   x="1.558"
   y="13.391"
   fill="#999999"
   height="1.013"
   id="rect282" />
        <rect
   width="2.266"
   x="1.558"
   y="10.492"
   fill="#999999"
   height="0.625"
   id="rect284" />
    </g><g
   id="g294"
   transform="rotate(-90,11.397272,9.7907506)">
        <rect
   width="2.266"
   x="1.558"
   y="10.492"
   fill="#020202"
   height="3.9119999"
   id="rect288" />
        <rect
   width="2.266"
   x="1.558"
   y="13.391"
   fill="#999999"
   height="1.013"
   id="rect290" />
        <rect
   width="2.266"
   x="1.558"
   y="10.492"
   fill="#999999"
   height="0.625"
   id="rect292" />
    </g><g
   id="g62"
   transform="rotate(-90,7.0765412,5.3403986)">
        <rect
   width="2.266"
   x="0.5210247"
   y="10.362378"
   fill="#020202"
   height="3.9119999"
   id="rect56" />
        <rect
   width="2.266"
   x="0.5210247"
   y="13.261378"
   fill="#999999"
   height="1.013"
   id="rect58" />
        <rect
   width="2.266"
   x="0.5210247"
   y="10.362378"
   fill="#999999"
   height="0.625"
   id="rect60" />
    </g>
    <path
   fill="#999999"
   d="m 7.8045655,28.005815 c -3.142,0 -5.688,2.546 -5.688,5.688 0,3.142 2.546,5.688 5.688,5.688 3.1419995,0 5.6879995,-2.546 5.6879995,-5.688 0,-3.142 -2.546,-5.688 -5.6879995,-5.688 z m 0,9.786 c -2.298,0 -4.161,-1.863 -4.161,-4.161 0,-2.298 1.863,-4.161 4.161,-4.161 2.2979995,0 4.1609995,1.863 4.1609995,4.161 0,2.298 -1.863,4.161 -4.1609995,4.161 z"
   id="path64" />
    <g
   gorn="0.9"
   id="BMP180"
   transform="translate(14.128788,5.6601565)">
        <rect
   width="9.7919998"
   x="2.563"
   y="21.167"
   fill="#e0e0e0"
   height="10.619"
   id="rect66" />
        <g
   id="g70">
            <path
   fill="#999999"
   d="m 11.836,29.584 c 0,0.779 -0.638,1.417 -1.417,1.417 h -5.94 c -0.78,0 -1.417,-0.638 -1.417,-1.417 v -6.19 c 0,-0.779 0.638,-1.417 1.417,-1.417 h 5.94 c 0.78,0 1.417,0.638 1.417,1.417 z"
   id="path68" />
        </g>
        <circle
   fill="#414141"
   cx="4.6040001"
   cy="24.708"
   r="0.625"
   id="circle72" />
    </g>
    
    <g
   gorn="0.11"
   id="Connector_group">
        <path
   fill="#9a916c"
   gorn="0.11.0"
   id="connector10pin"
   d="m 3.375,2.428 c -1.322,0 -2.393,1.071 -2.393,2.393 0,1.322 1.071,2.394 2.393,2.394 1.322,0 2.393,-1.071 2.393,-2.394 C 5.768,3.5 4.697,2.428 3.375,2.428 Z m 0,3.591 c -0.661,0 -1.197,-0.536 -1.197,-1.197 0,-0.661 0.536,-1.197 1.197,-1.197 0.661,0 1.197,0.536 1.197,1.197 0,0.661 -0.536,1.197 -1.197,1.197 z" />
        <path
   fill="#9a916c"
   gorn="0.11.1"
   id="connector9pin"
   d="m 10.574,2.428 c -1.322,0 -2.393,1.071 -2.393,2.393 0,1.322 1.071,2.394 2.393,2.394 1.322,0 2.393,-1.071 2.393,-2.394 0,-1.321 -1.071,-2.393 -2.393,-2.393 z m 0,3.591 c -0.661,0 -1.197,-0.536 -1.197,-1.197 0,-0.661 0.536,-1.197 1.197,-1.197 0.661,0 1.196,0.536 1.196,1.197 0,0.661 -0.535,1.197 -1.196,1.197 z" />
        <path
   fill="#9a916c"
   gorn="0.11.2"
   id="connector6pin"
   d="m 17.773,2.428 c -1.321,0 -2.393,1.071 -2.393,2.393 0,1.322 1.071,2.394 2.393,2.394 1.322,0 2.394,-1.071 2.394,-2.394 0,-1.321 -1.071,-2.393 -2.394,-2.393 z m 0.002,3.591 c -0.661,0 -1.197,-0.536 -1.197,-1.197 0,-0.661 0.536,-1.197 1.197,-1.197 0.661,0 1.196,0.536 1.196,1.197 0,0.661 -0.534,1.197 -1.196,1.197 z" />
        <path
   fill="#9a916c"
   gorn="0.11.3"
   id="connector5pin"
   d="m 24.975,2.428 c -1.321,0 -2.393,1.071 -2.393,2.393 0,1.322 1.071,2.394 2.393,2.394 1.322,0 2.394,-1.071 2.394,-2.394 C 27.368,3.5 26.297,2.428 24.975,2.428 Z m 0,3.591 c -0.661,0 -1.196,-0.536 -1.196,-1.197 0,-0.661 0.535,-1.197 1.196,-1.197 0.661,0 1.197,0.536 1.197,1.197 0,0.661 -0.536,1.197 -1.197,1.197 z" />
    </g>
<ellipse
   style="fill:#ffffff;stroke-width:0.931197"
   id="path418"
   cx="7.9285398"
   cy="33.809711"
   rx="4.385541"
   ry="4.3855414" /></svg>
